<?xml version="1.0" standalone="no"?><!DOCTYPE svg PUBLIC "-//W3C//DTD SVG 1.1//EN" "http://www.w3.org/Graphics/SVG/1.1/DTD/svg11.dtd"><svg height="500" node-id="1" sillyvg="true" template-height="500" template-width="500" version="1.1" viewBox="0 0 500 500" width="500" xmlns="http://www.w3.org/2000/svg" xmlns:xlink="http://www.w3.org/1999/xlink"><defs node-id="63"><clipPath id="XMLID_2_" node-id="19"><path d="M 336.40 370.80 L 165.10 370.80 L 162.80 370.60 L 158.70 369.00 L 156.80 367.70 L 154.00 364.40 L 152.50 360.20 L 152.30 357.90 L 152.30 292.70 L 153.10 288.20 L 155.30 284.40 L 158.70 281.60 L 160.70 280.60 L 165.10 279.80 L 336.40 279.80 L 338.80 280.00 L 340.90 280.60 L 342.90 281.60 L 344.70 282.90 L 347.50 286.20 L 349.10 290.40 L 349.30 292.70 L 349.30 357.90 L 348.50 362.40 L 346.30 366.20 L 342.90 369.00 L 340.90 370.00 L 336.40 370.80 Z" fill="#000000" fill-rule="nonzero" node-id="66" stroke="none" target-height="91" target-width="196.99998" target-x="152.3" target-y="279.8"></path></clipPath><clipPath id="SVGID_1_" node-id="28"><path d="M 169.20 224.00 L 168.00 227.60 L 167.60 231.10 L 167.80 234.60 L 168.50 238.00 L 169.90 241.20 L 171.70 244.20 L 174.10 246.80 L 176.90 248.90 L 180.20 250.70 L 261.50 283.70 L 275.30 253.50 L 194.90 214.30 L 191.50 213.10 L 188.20 212.50 L 184.80 212.50 L 181.50 213.10 L 178.40 214.30 L 175.50 216.00 L 173.00 218.20 L 170.90 220.80 L 169.20 224.00 Z" fill="#000000" fill-rule="nonzero" node-id="70" stroke="none" target-height="71.20001" target-width="107.69998" target-x="167.6" target-y="212.5"></path></clipPath><clipPath id="SVGID_5_" node-id="45"><path d="M 235.40 334.40 L 282.90 234.30 L 286.20 229.00 L 288.30 226.70 L 293.20 223.20 L 298.80 221.00 L 301.70 220.40 L 307.80 220.40 L 310.80 221.00 L 313.90 222.00 L 317.10 223.60 L 319.90 225.50 L 322.30 227.70 L 324.40 230.30 L 326.20 233.00 L 327.50 236.00 L 328.40 239.10 L 328.90 242.30 L 329.00 245.70 L 328.60 249.00 L 327.70 252.20 L 326.30 255.50 L 273.70 354.10 L 235.40 334.40 Z" fill="#000000" fill-rule="nonzero" node-id="74" stroke="none" target-height="133.70001" target-width="93.600006" target-x="235.4" target-y="220.4"></path></clipPath><clipPath id="SVGID_8_" node-id="57"><path d="M 290.70 371.90 L 253.50 372.80 L 221.70 435.00 L 226.50 435.30 L 234.30 434.40 L 242.40 432.10 L 249.40 428.60 L 252.90 426.30 L 256.40 423.40 L 259.90 419.90 L 263.10 416.10 L 266.30 411.50 L 269.30 406.00 L 293.20 405.20 L 290.70 371.90 Z" fill="#000000" fill-rule="nonzero" node-id="78" stroke="none" target-height="63.399994" target-width="71.500015" target-x="221.7" target-y="371.9"></path></clipPath></defs><path d="M 275.30 77.90 L 274.90 81.60 L 274.00 85.00 L 272.50 88.10 L 270.50 91.00 L 268.10 93.40 L 265.20 95.40 L 262.10 96.90 L 258.70 97.80 L 255.00 98.20 L 251.30 97.80 L 247.90 96.90 L 244.70 95.40 L 241.90 93.40 L 239.50 91.00 L 237.40 88.10 L 235.90 85.00 L 235.00 81.60 L 234.70 77.90 L 235.00 74.20 L 235.90 70.80 L 237.40 67.60 L 239.50 64.80 L 241.90 62.40 L 244.70 60.40 L 247.90 58.90 L 251.30 57.90 L 255.00 57.60 L 258.70 57.90 L 262.10 58.90 L 265.20 60.40 L 268.10 62.40 L 270.50 64.80 L 272.50 67.60 L 274.00 70.80 L 274.90 74.20 L 275.30 77.90 Z" fill="#ffb7b7" fill-rule="nonzero" node-id="84" stroke="none" target-height="40.6" target-width="40.59999" target-x="234.7" target-y="57.6"></path><path d="M 234.80 80.50 L 239.10 74.60 L 242.20 72.20 L 243.80 71.80 L 244.80 71.90 L 245.70 72.50 L 248.10 75.00 L 249.30 76.00 L 250.60 76.40 L 252.70 76.60 L 254.80 76.10 L 256.90 75.20 L 261.80 71.50 L 263.50 70.90 L 265.90 72.10 L 267.60 73.60 L 274.10 80.50 L 274.80 80.90 L 275.40 80.80 L 276.10 80.00 L 276.70 78.40 L 277.10 75.60 L 277.10 72.50 L 276.80 69.00 L 275.90 65.40 L 274.50 62.00 L 273.20 59.80 L 269.80 56.30 L 266.30 53.80 L 261.60 51.50 L 260.00 51.20 L 258.50 51.40 L 252.80 54.20 L 251.00 54.40 L 244.60 54.30 L 240.50 54.90 L 238.70 55.80 L 236.80 57.90 L 232.10 69.50 L 231.90 71.60 L 232.20 74.10 L 233.00 76.80 L 234.80 80.50 Z" fill="#26205c" fill-rule="nonzero" node-id="86" stroke="none" target-height="29.7" target-width="45.200012" target-x="231.9" target-y="51.2"></path><path d="M 349.60 283.70 L 153.20 283.70 L 151.40 283.40 L 149.90 282.80 L 148.50 281.70 L 147.50 280.40 L 146.80 278.90 L 146.60 277.10 L 146.60 125.20 L 146.80 123.40 L 147.50 121.90 L 148.50 120.50 L 149.90 119.50 L 151.40 118.80 L 153.20 118.60 L 349.60 118.60 L 351.40 118.80 L 353.00 119.50 L 354.30 120.50 L 355.40 121.90 L 356.00 123.40 L 356.30 125.20 L 356.30 277.10 L 356.00 278.90 L 355.40 280.40 L 354.30 281.70 L 353.00 282.80 L 351.40 283.40 L 349.60 283.70 Z" fill="#2f3a56" fill-rule="nonzero" node-id="88" stroke="none" target-height="165.1" target-width="209.69998" target-x="146.6" target-y="118.6"></path><path d="M 294.00 256.10 L 218.90 256.10 L 211.50 255.30 L 204.60 253.20 L 200.30 251.00 L 196.40 248.40 L 192.80 245.20 L 189.70 241.70 L 187.00 237.70 L 184.90 233.50 L 183.60 230.10 L 182.10 222.90 L 181.90 219.10 L 181.90 151.40 L 182.10 147.60 L 183.60 140.40 L 184.90 137.00 L 187.00 132.70 L 189.70 128.80 L 192.80 125.30 L 196.40 122.10 L 200.30 119.50 L 204.60 117.30 L 207.90 116.10 L 215.10 114.60 L 218.90 114.40 L 294.00 114.40 L 301.50 115.20 L 308.40 117.30 L 312.60 119.50 L 316.60 122.10 L 320.10 125.30 L 323.30 128.80 L 325.90 132.70 L 328.10 137.00 L 329.30 140.40 L 330.80 147.60 L 331.00 151.40 L 331.00 219.10 L 330.80 222.90 L 329.30 230.10 L 328.10 233.50 L 325.90 237.70 L 323.30 241.70 L 320.10 245.20 L 316.60 248.40 L 312.60 251.00 L 308.40 253.20 L 305.00 254.40 L 297.80 255.90 L 294.00 256.10 Z" fill="#5a78ec" fill-rule="nonzero" node-id="90" stroke="none" target-height="141.70001" target-width="149.1" target-x="181.9" target-y="114.4"></path><path d="M 226.10 212.40 L 294.40 212.40 L 294.40 256.10 L 226.10 256.10 Z" fill="#38569f" fill-rule="nonzero" node-id="92" stroke="none" target-height="43.700012" target-width="68.29999" target-x="226.1" target-y="212.4"></path><path d="M 201.10 220.20 L 201.10 161.60 L 312.80 161.60 L 312.80 227.30 L 201.10 222.50 Z" fill="#4c6ac8" fill-rule="nonzero" node-id="94" stroke="none" target-height="65.7" target-width="111.69998" target-x="201.1" target-y="161.6"></path><path d="M 213.80 169.40 L 213.10 169.10 L 212.80 168.40 L 212.80 146.40 L 213.10 145.70 L 213.80 145.40 L 214.50 145.70 L 214.80 146.40 L 214.80 168.40 L 214.50 169.10 L 213.80 169.40 Z" fill="#232323" fill-rule="nonzero" node-id="96" stroke="none" target-height="24" target-width="2" target-x="212.8" target-y="145.4"></path><path d="M 301.20 169.40 L 300.50 169.10 L 300.20 168.40 L 300.20 146.40 L 300.50 145.70 L 301.20 145.40 L 301.90 145.70 L 302.20 146.40 L 302.20 168.40 L 301.90 169.10 L 301.20 169.40 Z" fill="#232323" fill-rule="nonzero" node-id="98" stroke="none" target-height="24" target-width="2" target-x="300.2" target-y="145.4"></path><path d="M 307.00 230.80 L 206.10 230.60 L 204.90 229.40 L 204.70 228.50 L 204.70 166.40 L 204.90 165.50 L 206.10 164.30 L 307.90 164.30 L 309.10 165.50 L 309.30 166.40 L 309.30 228.50 L 308.60 230.20 L 307.00 230.80 Z" fill="#7e78cd" fill-rule="nonzero" node-id="100" stroke="none" target-height="66.5" target-width="104.59999" target-x="204.7" target-y="164.3"></path><path d="M 266.90 283.70 L 199.10 283.70 L 194.40 280.10 L 191.20 277.10 L 187.90 273.60 L 182.40 265.90 L 178.70 258.20 L 177.30 254.10 L 176.40 249.60 L 175.90 244.60 L 266.90 283.70 Z" fill="#13113d" fill-rule="nonzero" node-id="102" stroke="none" target-height="39.100006" target-width="91" target-x="175.9" target-y="244.6"></path><path d="M 162.10 367.00 L 142.40 423.50 L 154.90 423.50 L 197.70 364.00 Z" fill="#2f3a56" fill-rule="nonzero" node-id="104" stroke="none" target-height="59.5" target-width="55.300003" target-x="142.4" target-y="364"></path><path d="M 338.90 367.00 L 358.70 423.50 L 346.10 423.50 L 303.30 364.00 Z" fill="#2f3a56" fill-rule="nonzero" node-id="106" stroke="none" target-height="59.5" target-width="55.400024" target-x="303.3" target-y="364"></path><g node-id="191"><g node-id="195"><path d="M 336.40 370.80 L 165.10 370.80 L 162.80 370.60 L 158.70 369.00 L 156.80 367.70 L 154.00 364.40 L 152.50 360.20 L 152.30 357.90 L 152.30 292.70 L 153.10 288.20 L 155.30 284.40 L 158.70 281.60 L 160.70 280.60 L 165.10 279.80 L 336.40 279.80 L 338.80 280.00 L 340.90 280.60 L 342.90 281.60 L 344.70 282.90 L 347.50 286.20 L 349.10 290.40 L 349.30 292.70 L 349.30 357.90 L 348.50 362.40 L 346.30 366.20 L 342.90 369.00 L 340.90 370.00 L 336.40 370.80 Z" fill="#404f70" fill-rule="nonzero" group-id="1,5" node-id="112" stroke="none" target-height="91" target-width="196.99998" target-x="152.3" target-y="279.8"></path></g><g node-id="196"><g clip-path="url(#XMLID_2_)" group-id="1,6" node-id="115"><path d="M 156.80 269.20 L 181.90 269.20 L 181.90 378.70 L 156.80 378.70 Z" fill="#2f3a56" fill-rule="nonzero" group-id="1,6" node-id="117" stroke="none" target-height="109.5" target-width="25.09999" target-x="156.8" target-y="269.2"></path></g></g><g clip-path="url(#XMLID_2_)" group-id="1,7" node-id="120"><path d="M 319.10 263.40 L 356.30 263.40 L 356.30 391.30 L 319.10 391.30 Z" fill="#333f59" fill-rule="nonzero" group-id="1,7" node-id="122" stroke="none" target-height="127.899994" target-width="37.19998" target-x="319.1" target-y="263.4"></path></g></g><path d="M 241.10 337.40 L 237.10 345.40 L 266.90 360.50 L 273.10 349.00 Z" fill="#ffb7b7" fill-rule="nonzero" node-id="126" stroke="none" target-height="23.100006" target-width="36" target-x="237.1" target-y="337.4"></path><g node-id="192"><g node-id="198"><path d="M 169.20 224.00 L 168.00 227.60 L 167.60 231.10 L 167.80 234.60 L 168.50 238.00 L 169.90 241.20 L 171.70 244.20 L 174.10 246.80 L 176.90 248.90 L 180.20 250.70 L 261.50 283.70 L 275.30 253.50 L 194.90 214.30 L 191.50 213.10 L 188.20 212.50 L 184.80 212.50 L 181.50 213.10 L 178.40 214.30 L 175.50 216.00 L 173.00 218.20 L 170.90 220.80 L 169.20 224.00 Z" fill="#26205c" fill-rule="nonzero" group-id="2,8" node-id="132" stroke="none" target-height="71.20001" target-width="107.69998" target-x="167.6" target-y="212.5"></path></g><g node-id="199"><g clip-path="url(#SVGID_1_)" group-id="2,9" node-id="135"><path d="M 250.80 289.70 L 273.10 240.40 L 298.90 248.00 L 264.00 288.90 Z" fill="#13113d" fill-rule="nonzero" group-id="2,9" node-id="137" stroke="none" target-height="49.30002" target-width="48.09999" target-x="250.8" target-y="240.4"></path></g></g><g node-id="200"><g clip-path="url(#SVGID_1_)" group-id="2,10" node-id="140"><path d="M 277.20 285.30 L 185.60 249.00 L 180.70 246.70 L 171.10 240.60 L 162.60 233.90 L 151.50 223.40 L 151.30 222.70 L 151.60 222.00 L 152.30 221.70 L 153.00 222.10 L 160.20 229.10 L 167.70 235.50 L 176.80 242.00 L 181.60 244.80 L 186.40 247.10 L 277.50 283.40 L 278.10 284.00 L 278.10 284.70 L 277.20 285.30 Z" fill="#ffffff" fill-rule="nonzero" group-id="2,10" node-id="142" stroke="none" target-height="63.59999" target-width="126.8" target-x="151.3" target-y="221.7"></path></g></g><g clip-path="url(#SVGID_1_)" group-id="2,11" node-id="147"><path d="M 15.20 224.20 L 16.00 224.00 L 16.50 223.50 L 16.50 222.00 L 16.00 221.50 L 15.20 221.20 L 14.40 221.50 L 13.90 222.00 L 13.90 223.50 L 14.40 224.00 L 15.20 224.20 Z" fill="#ffffff" fill-rule="nonzero" group-id="2,11,17" node-id="149" stroke="none" target-height="3" target-width="2.6000004" target-x="13.9" target-y="221.2"></path></g></g><g node-id="193"><g node-id="203"><g node-id="208"><path d="M 235.40 334.40 L 282.90 234.30 L 286.20 229.00 L 288.30 226.70 L 293.20 223.20 L 298.80 221.00 L 301.70 220.40 L 307.80 220.40 L 310.80 221.00 L 313.90 222.00 L 317.10 223.60 L 319.90 225.50 L 322.30 227.70 L 324.40 230.30 L 326.20 233.00 L 327.50 236.00 L 328.40 239.10 L 328.90 242.30 L 329.00 245.70 L 328.60 249.00 L 327.70 252.20 L 326.30 255.50 L 273.70 354.10 L 235.40 334.40 Z" fill="#26205c" fill-rule="nonzero" group-id="3,13,18" node-id="162" stroke="none" target-height="133.70001" target-width="93.600006" target-x="235.4" target-y="220.4"></path></g><g clip-path="url(#SVGID_5_)" group-id="3,13,19" node-id="165"><path d="M 322.00 212.40 L 324.10 219.80 L 324.70 223.30 L 325.40 231.60 L 324.60 239.00 L 322.80 244.60 L 270.10 345.40" fill="#26205c" fill-rule="nonzero" group-id="3,13,19" node-id="167" stroke="none" target-height="133" target-width="55.299988" target-x="270.1" target-y="212.4"></path></g></g></g><g node-id="194"><g node-id="205"><path d="M 237.10 345.40 L 218.60 377.60 L 255.10 437.20 L 257.90 433.20 L 261.20 426.10 L 263.40 418.00 L 264.10 410.10 L 263.90 406.00 L 263.30 401.50 L 262.10 396.70 L 260.50 391.90 L 258.20 386.90 L 255.10 381.40 L 266.90 360.50 L 237.10 345.40 Z" fill="#26205c" fill-rule="nonzero" group-id="4,15" node-id="178" stroke="none" target-height="91.80002" target-width="48.299988" target-x="218.6" target-y="345.4"></path></g><g clip-path="url(#SVGID_8_)" group-id="4,16" node-id="181"><path d="M 219.50 370.10 L 263.00 441.50 L 261.30 442.50 L 217.70 371.10 Z" fill="#ffffff" fill-rule="nonzero" group-id="4,16" node-id="183" stroke="none" target-height="72.399994" target-width="45.300003" target-x="217.7" target-y="370.1"></path></g></g><path d="M 154.90 375.70 L 152.00 375.50 L 146.80 374.10 L 144.30 372.80 L 141.40 370.80 L 138.90 368.30 L 136.80 365.30 L 135.60 362.90 L 134.10 357.60 L 133.90 354.80 L 133.90 255.20 L 134.10 252.30 L 135.60 247.10 L 136.80 244.70 L 138.90 241.70 L 141.40 239.20 L 144.30 237.10 L 149.30 235.00 L 152.00 234.50 L 154.90 234.20 L 160.50 235.00 L 165.50 237.10 L 168.40 239.20 L 170.90 241.70 L 173.00 244.70 L 174.20 247.10 L 175.70 252.30 L 175.90 255.20 L 175.90 354.80 L 175.70 357.60 L 175.10 360.30 L 173.00 365.30 L 170.90 368.30 L 168.40 370.80 L 165.50 372.80 L 163.10 374.10 L 157.80 375.50 L 154.90 375.70 Z" fill="#404f70" fill-rule="nonzero" node-id="187" stroke="none" target-height="141.50002" target-width="42" target-x="133.9" target-y="234.2"></path><path d="M 346.90 375.70 L 344.00 375.50 L 338.80 374.10 L 336.30 372.80 L 333.40 370.80 L 330.90 368.30 L 328.80 365.30 L 327.60 362.90 L 326.10 357.60 L 325.90 354.80 L 325.90 255.20 L 326.10 252.30 L 327.60 247.10 L 328.80 244.70 L 330.90 241.70 L 333.40 239.20 L 336.30 237.10 L 341.30 235.00 L 344.00 234.50 L 346.90 234.20 L 352.50 235.00 L 357.50 237.10 L 360.40 239.20 L 362.90 241.70 L 365.00 244.70 L 366.20 247.10 L 367.70 252.30 L 367.90 255.20 L 367.90 354.80 L 367.70 357.60 L 367.10 360.30 L 365.00 365.30 L 362.90 368.30 L 360.40 370.80 L 357.50 372.80 L 355.10 374.10 L 349.80 375.50 L 346.90 375.70 Z" fill="#404f70" fill-rule="nonzero" node-id="189" stroke="none" target-height="141.50002" target-width="42" target-x="325.9" target-y="234.2"></path></svg>